PathFileType	4	(X/Y/Z)	C:\Users\WrightLab\Desktop\Jo\P4V16.trc
DataRate	CameraRate	NumFrames	NumMarkers	Units	OrigDataRate	OrigDataStartFrame	OrigNumFrames
100.00	100.00	       7	19	mm	100.00	329	       525
Frame#	Time	Headset_Front			Headset_Back			Headset_Left			Headset_Right			Left_Shoulder			Right_Shoulder			Sternum			C7			Left Elbow			Right Elbow			Left Wrist			Right Wrist			Left ASIS			Right ASIS			S2			Left Knee			Right Knee			Left Ankle			Right Ankle			
		X1	Y1	Z1	X2	Y2	Z2	X3	Y3	Z3	X4	Y4	Z4	X5	Y5	Z5	X6	Y6	Z6	X7	Y7	Z7	X8	Y8	Z8	X9	Y9	Z9	X10	Y10	Z10	X11	Y11	Z11	X12	Y12	Z12	X13	Y13	Z13	X14	Y14	Z14	X15	Y15	Z15	X16	Y16	Z16	X17	Y17	Z17	X18	Y18	Z18	X19	Y19	Z19	

329	3.280	253.21684	1702.88232	1238.09705							159.73804	1716.80969	1118.77454	442.88510	1559.23364	1027.02832	134.10411	1553.12781	1003.92438	294.06705	1492.27686	1124.27722	291.65268	1585.09192	959.10577	605.46393	1222.49084	969.65625	12.59767	1208.92676	1081.61572	614.48541	931.25452	1087.75366	122.89749	1080.73962	1326.47253	455.24799	1084.58447	1127.68152	129.57388	1030.53381	1067.13306	352.99362	1081.76196	917.58350	505.99673	643.10864	1282.55261	255.16667	554.25494	1019.73474	589.56439	153.41124	1142.63660	408.68390	85.81875	884.29797	
330	3.290	253.44968	1701.49329	1247.56763							159.83572	1715.89001	1128.00598	443.30371	1558.80042	1039.59656	135.58972	1552.06458	1010.90082	293.40659	1491.37061	1133.72327	292.24054	1584.45776	968.45544	606.83917	1222.03479	982.66064	11.96550	1209.19873	1089.02087	614.22919	930.36206	1099.56079	122.74278	1085.93506	1336.02026	454.88525	1084.31543	1137.94604	130.40013	1030.16638	1073.57446	354.83386	1081.06689	927.54938	502.06808	642.32404	1293.93127	256.08087	553.54730	1023.62915	584.45544	146.35297	1177.13074	408.87567	86.70671	884.98932	
331	3.300	253.11333	1700.07507	1257.01062							159.87225	1715.43640	1137.17188	442.08063	1557.33179	1049.31506	135.57469	1551.59546	1018.00848	291.54199	1490.15393	1142.64478	294.88220	1583.09094	977.49786	608.23834	1221.94446	995.61237	11.59948	1208.77124	1096.29041	614.72278	929.68237	1110.44006	122.40647	1090.73401	1345.99988	454.47818	1083.17798	1149.61682	130.11708	1029.27563	1080.59839	358.01297	1080.65186	937.68207	498.36426	641.01917	1305.31799	255.97290	553.41052	1027.64502	577.99506	139.15359	1211.86523	409.53400	87.64857	884.99323	
332	3.310	253.11209	1698.40625	1266.49255							160.29742	1714.38525	1146.47839	441.90140	1556.12134	1060.98315	136.00540	1550.36389	1025.29712	291.41666	1488.57813	1151.29517	295.22159	1582.30200	986.82983	609.91418	1221.37488	1009.46655	10.68121	1208.56274	1103.85608	615.35205	928.79437	1123.02783	121.74128	1095.21716	1355.84399	454.47247	1081.92432	1160.68640	130.81097	1028.62329	1088.19128	360.21024	1080.10754	947.54199	493.97858	638.65527	1316.23877	256.42075	552.83380	1032.17749	569.94965	132.69473	1244.87036	409.96042	88.28912	885.88562	
333	3.320	253.25784	1696.54297	1276.02161							160.85007	1713.18677	1155.71765	442.22272	1555.43347	1072.10730	137.26846	1548.92493	1032.68286	290.49530	1487.00208	1160.26685	296.71539	1580.89624	996.19458	611.16370	1220.52124	1022.07141	10.79646	1208.21240	1110.86328	615.82098	928.00616	1135.22717	121.05592	1099.33289	1365.24731	454.30774	1079.56250	1171.57300	131.56039	1027.87830	1095.40723	362.17398	1078.98218	957.60339	491.81219	636.34857	1326.22534	257.21417	552.19495	1036.73938	560.62860	126.63636	1277.88440	410.35455	89.03415	886.41205	
334	3.330	253.41109	1694.69922	1285.45630							161.03632	1712.16028	1164.93396	442.23264	1554.46973	1083.06921	137.60437	1547.79114	1040.17358	288.76019	1485.66748	1169.83398	297.93280	1579.54565	1005.26038	612.07782	1219.91382	1035.53394	9.49791	1207.70190	1119.01013	616.28156	926.67450	1147.56250	119.96165	1103.34534	1374.78125	454.66989	1078.27112	1181.89563	131.72569	1026.88831	1103.65320	363.85056	1077.09668	967.39960	488.81104	632.96973	1335.21448	257.39401	551.54645	1041.90259	549.99341	121.43507	1311.50208	410.87466	89.64532	886.97137	
335	3.340	252.58882	1692.83472	1295.07776							161.77095	1710.91516	1174.18750	441.96976	1552.53979	1093.42200	137.99280	1546.41309	1047.66602	288.62177	1484.19214	1178.68201	297.63669	1578.37158	1014.53381	612.83398	1218.92346	1048.94836	9.19688	1207.06421	1126.45581	616.75964	925.61682	1159.62292	119.44309	1106.75183	1384.40796	454.30045	1076.01172	1193.60413	132.37483	1025.69238	1111.88538	365.19998	1076.23071	978.78058	487.02948	630.43140	1343.87927	258.12549	550.60394	1047.34717	537.86243	115.68742	1343.45691	411.74261	90.20535	887.40912	
